# xmcd
#
# Track frame offsets:
#	150
#	14553
#	29833
#	49444
#	67447
#	84427
#	100617
#	115250
#	130090
#	145436
#	159918
#	176060
#	189368
#	201279
#	217190
#	228484
#	240470
#	256188
#	273114
#	289273
#
# Disc length: 4071 seconds
#
# Revision: 0
# Processed by: cddbd v1.5.2PL0 Copyright (c) Steve Scherf et al.
# Submitted via: EasyCDDAExtractor 16.0.4.1
#
DISCID=310fe514
DTITLE=RAZNI - 5949664  ZLATNE ZICE SLAVONIJE - KUTJEVO 2011
DYEAR=2011
DGENRE=Country
TTITLE0=SVOBODA VERA - SLAVONIJO TI SI POPUT RAJA
TTITLE1=ZDENKO VIDOVIC I TS MELEM - STARA BECARINA 
TTITLE2=BASIC VLADO - CACA
TTITLE3=TS CASTRUM - BESANE MI NOCI
TTITLE4=ZANKO DRAZEN - TAMBURASI VECERAS STE MOJI
TTITLE5=DOSEN BLANKA - SPAVALE BI PLAVE OCI
TTITLE6=TIHOMIR KOZINA I TS EKIPA - LJUBAV TI PRIZNAJEM
TTITLE7=DOMIJAN DARKO - TIHO NOCAS TAMBURASI
TTITLE8=TS GAZDE I VEDRANA VUKOJEVIC - DAT CE BOG I BOLJE DANE
TTITLE9=CECILIJA - MIRIS JESENI
TTITLE10=TS EVERGREEN - SIROK DUNAV, SIROK SRIJEM 
TTITLE11=BOSKOVIC GORAN - MOJE JEDINO BLAGO
TTITLE12=TUCA I MARIO - ODLUTAM NEKAD NA DVA KOTACA
TTITLE13=BAKETARIC ANA - LJUBAV S BECAROM
TTITLE14=MARKOVINOVIC ZVONKO - NAMISTIO RIDJI NOVE AMOVE 
TTITLE15=TADIC SRECKO - SESIR MOJ
TTITLE16=PALDUM HANKA - STO SVAKA ZENA SANJA
TTITLE17=BERNY FEAT. TAZ SOLDO - UDALA SE NIKAD NIJE
TTITLE18=INSTRUMENTAL - SIROK DUNAV, ZIROK SRIJEM
TTITLE19=INSTRUMENTAL - SPAVALE BI PLAVE OCI 
EXTD=
EXTT0=
EXTT1=
EXTT2=
EXTT3=
EXTT4=
EXTT5=
EXTT6=
EXTT7=
EXTT8=
EXTT9=
EXTT10=
EXTT11=
EXTT12=
EXTT13=
EXTT14=
EXTT15=
EXTT16=
EXTT17=
EXTT18=
EXTT19=
PLAYORDER=
